<?xml version="1.0" encoding="UTF-8" standalone="no"?>
<!-- Created with Inkscape (http://www.inkscape.org/) -->

<svg
   xmlns:dc="http://purl.org/dc/elements/1.1/"
   xmlns:cc="http://creativecommons.org/ns#"
   xmlns:rdf="http://www.w3.org/1999/02/22-rdf-syntax-ns#"
   xmlns:svg="http://www.w3.org/2000/svg"
   xmlns="http://www.w3.org/2000/svg"
   xmlns:sodipodi="http://sodipodi.sourceforge.net/DTD/sodipodi-0.dtd"
   xmlns:inkscape="http://www.inkscape.org/namespaces/inkscape"
   version="1.1"
   id="svg2"
   xml:space="preserve"
   width="31.239567"
   height="35.739166"
   viewBox="0 0 31.239565 35.739165"
   sodipodi:docname="placeMarker.svg"
   inkscape:version="0.92.1 r15371"><metadata
     id="metadata8"><rdf:RDF><cc:Work
         rdf:about=""><dc:format>image/svg+xml</dc:format><dc:type
           rdf:resource="http://purl.org/dc/dcmitype/StillImage" /><dc:title></dc:title></cc:Work></rdf:RDF></metadata><defs
     id="defs6"><clipPath
       clipPathUnits="userSpaceOnUse"
       id="clipPath20"><path
         d="M 0,800 H 800 V 0 H 0 Z"
         id="path18"
         inkscape:connector-curvature="0" /></clipPath><clipPath
       clipPathUnits="userSpaceOnUse"
       id="clipPath204"><path
         d="M 0,800 H 800 V 0 H 0 Z"
         id="path202"
         inkscape:connector-curvature="0" /></clipPath><filter
       inkscape:collect="always"
       style="color-interpolation-filters:sRGB"
       id="filter5473"
       x="-0.077994116"
       width="1.1559882"
       y="-0.066861473"
       height="1.1337229"><feGaussianBlur
         inkscape:collect="always"
         stdDeviation="0.87982005"
         id="feGaussianBlur5475" /></filter></defs><sodipodi:namedview
     pagecolor="#ffffff"
     bordercolor="#666666"
     borderopacity="1"
     objecttolerance="10"
     gridtolerance="10"
     guidetolerance="10"
     inkscape:pageopacity="0"
     inkscape:pageshadow="2"
     inkscape:window-width="1855"
     inkscape:window-height="1056"
     id="namedview4"
     showgrid="false"
     fit-margin-top="0"
     fit-margin-left="0"
     fit-margin-right="0"
     fit-margin-bottom="0"
     showborder="true"
     inkscape:zoom="1"
     inkscape:cx="8.7917137"
     inkscape:cy="5.4722613"
     inkscape:window-x="65"
     inkscape:window-y="24"
     inkscape:window-maximized="1"
     inkscape:current-layer="g10" /><g
     id="g10"
     inkscape:groupmode="layer"
     inkscape:label="4 cartoon campus icon vector"
     transform="matrix(1.3333333,0,0,-1.3333333,-269.71355,312.46885)"><path
       sodipodi:nodetypes="ccssc"
       inkscape:connector-curvature="0"
       id="path5439"
       style="fill:#808080;fill-opacity:1;fill-rule:nonzero;stroke:#808080;stroke-width:1.05755591;stroke-miterlimit:4;stroke-dasharray:none;filter:url(#filter5473)"
       d="m 227.53672,223.20336 c 0,-7.47612 -6.48649,-13.97407 -13.53672,-18.04452 -6.82048,3.93781 -13.53671,10.5684 -13.53671,18.04452 0,7.47613 6.06059,13.53672 13.53671,13.53672 7.47603,0 13.53672,-6.06059 13.53672,-13.53672"
       transform="matrix(0.74863406,0,0,0.74863406,53.792311,55.539168)" /><path
       d="m 224.13405,222.63681 c 0,-5.59688 -4.85601,-10.46147 -10.13405,-13.50875 -5.10604,2.94798 -10.13404,7.91187 -10.13404,13.50875 0,5.59688 4.53716,10.13405 10.13404,10.13405 5.59681,0 10.13405,-4.53717 10.13405,-10.13405"
       style="fill:#ffffff;fill-opacity:1;fill-rule:nonzero;stroke:#808080;stroke-width:0.79172236;stroke-miterlimit:4;stroke-dasharray:none"
       id="path5391"
       inkscape:connector-curvature="0"
       sodipodi:nodetypes="ccssc" /><path
       style="fill:#4d4d4d;stroke-width:0.03257556"
       d="m 207.8927,217.37423 c -0.0642,0.0642 -0.0651,0.10859 -0.0651,3.13994 0,2.88132 0.004,3.07896 0.057,3.14125 0.0314,0.0366 1.00618,0.49465 2.16628,1.01795 l 2.10926,0.95147 v 0.96772 c 0,0.88146 0.005,0.97204 0.0571,1.01618 0.0314,0.0266 0.35752,0.18153 0.7248,0.34418 0.3673,0.16264 1.16304,0.51691 1.76832,0.78727 0.60529,0.27034 1.12568,0.49135 1.15643,0.4911 0.0308,-2.8e-4 0.88415,-0.27078 1.89644,-0.6012 1.52534,-0.49788 1.85307,-0.61525 1.91381,-0.68545 l 0.0733,-0.0847 v -5.21028 c 0,-5.16683 -5.7e-4,-5.21081 -0.0651,-5.27542 -0.0647,-0.0647 -0.10859,-0.0651 -5.89617,-0.0651 -5.7876,0 -5.83151,4.9e-4 -5.89618,0.0651 z m 5.57043,4.36431 v 3.94081 l -0.24585,-0.11203 c -0.13521,-0.0616 -1.29326,-0.5837 -2.57347,-1.16018 l -2.32763,-1.04815 v -2.78064 -2.78064 h 2.57347 2.57348 z m -4.70533,-3.31464 c -0.0805,0.11491 -0.0648,0.27008 0.0351,0.34872 0.0845,0.0665 0.11378,0.0675 1.91757,0.0675 1.80379,0 1.83305,-7.5e-4 1.91757,-0.0675 0.10755,-0.0846 0.11767,-0.25897 0.0207,-0.35597 -0.0636,-0.0636 -0.10858,-0.0651 -1.95269,-0.0651 h -1.88753 z m 0.0293,1.31058 c -0.11994,0.11993 -0.0972,0.33753 0.0409,0.3905 0.0316,0.0121 0.87764,0.10906 1.88002,0.21538 1.65243,0.17526 1.82951,0.18872 1.89742,0.14423 0.13868,-0.0909 0.14064,-0.33709 0.003,-0.41061 -0.0568,-0.0304 -3.45065,-0.41633 -3.68315,-0.41883 -0.0322,-3.5e-4 -0.0945,0.0353 -0.13845,0.0793 z m -0.0148,1.28821 c -0.0757,0.0757 -0.0866,0.25139 -0.0211,0.34097 0.0349,0.0477 0.42282,0.14044 1.86495,0.44581 1.0015,0.21206 1.84458,0.38566 1.87352,0.38575 0.0996,3.6e-4 0.22428,-0.12875 0.22428,-0.23234 0,-0.21601 -0.0434,-0.23992 -0.6678,-0.36784 -0.215,-0.044 -0.98235,-0.2055 -1.70522,-0.35879 -0.72286,-0.15329 -1.35687,-0.2787 -1.40889,-0.2787 -0.052,0 -0.12391,0.0293 -0.15974,0.0651 z m 0.0768,1.27018 c -0.0834,0.0337 -0.1745,0.15565 -0.1745,0.23373 0,0.0308 0.033,0.0936 0.0733,0.13943 0.0611,0.0695 0.37714,0.1775 1.89752,0.64862 1.98471,0.61499 1.9507,0.60823 2.05395,0.40857 0.0597,-0.11537 0.0326,-0.2441 -0.0648,-0.3079 -0.073,-0.0478 -3.61077,-1.15644 -3.67839,-1.15269 -0.0205,0.001 -0.0687,0.0147 -0.10704,0.0302 z m 7.61105,-0.96365 v 3.5315 l -0.23617,0.0802 c -0.1299,0.0442 -0.68526,0.23602 -1.23413,0.42643 -0.54888,0.19041 -1.00697,0.34619 -1.01799,0.34619 -0.011,0 -0.02,-1.78107 -0.02,-3.95793 v -3.95793 h 1.25416 1.25416 z m 2.79346,1.37841 -0.008,4.90992 -1.6846,0.54742 -1.68461,0.54741 -1.61367,-0.72192 -1.61368,-0.72192 v -0.71097 -0.71097 l 0.2036,0.092 c 0.11198,0.0506 0.33746,0.15262 0.50109,0.22667 0.16361,0.074 0.33219,0.13463 0.37461,0.13461 0.1095,-3e-5 3.12784,-1.0659 3.18757,-1.12562 0.0434,-0.0435 0.0505,-0.48989 0.0579,-3.71298 l 0.009,-3.6636 h 1.13983 1.13984 z m -1.42292,-3.78167 c -0.0624,0.0794 -0.0675,0.12854 -0.0675,0.653 0,0.55873 0.001,0.56835 0.08,0.64712 0.0977,0.0977 0.20899,0.102 0.32285,0.0124 l 0.0858,-0.0675 v -0.60029 c 0,-0.55685 -0.005,-0.60499 -0.0651,-0.66543 -0.097,-0.097 -0.27137,-0.0869 -0.35596,0.0207 z m 0.0731,1.67278 c -0.1244,0.0514 -0.14058,0.13479 -0.14058,0.72514 0,0.52464 0.004,0.57128 0.0664,0.63736 0.0863,0.0926 0.26748,0.0957 0.35706,0.006 0.0604,-0.0604 0.0651,-0.10858 0.0651,-0.66275 0,-0.52786 -0.007,-0.6036 -0.057,-0.64897 -0.0757,-0.0682 -0.20323,-0.0932 -0.29105,-0.0569 z m -0.0731,1.81281 c -0.0626,0.0796 -0.0675,0.12836 -0.0675,0.6678 0,0.53853 0.004,0.58683 0.0651,0.64712 0.0431,0.0431 0.10859,0.0651 0.19361,0.0651 0.21495,0 0.22987,-0.0481 0.22987,-0.74021 0,-0.55196 -0.004,-0.60015 -0.0651,-0.66055 -0.097,-0.097 -0.27137,-0.0869 -0.35597,0.0207 z m 0.0124,1.7532 c -0.0788,0.0788 -0.08,0.088 -0.08,0.65299 0,0.56497 0.001,0.57417 0.08,0.653 0.0977,0.0977 0.20898,0.102 0.32284,0.0124 l 0.0858,-0.0675 v -0.59461 c 0,-0.57941 -0.002,-0.59642 -0.0754,-0.66543 -0.10001,-0.094 -0.23385,-0.0903 -0.33327,0.009 z m 0.0914,1.67259 c -0.15155,0.0228 -0.17131,0.10709 -0.17131,0.73045 0,0.53567 0.005,0.58399 0.0651,0.64426 0.0864,0.0864 0.27192,0.0864 0.35833,0 0.0603,-0.0603 0.0651,-0.10859 0.0651,-0.64426 0,-0.45701 -0.0101,-0.59354 -0.0479,-0.64753 -0.0502,-0.0718 -0.14658,-0.10141 -0.2694,-0.0829 z"
       id="path5387"
       inkscape:connector-curvature="0" /></g></svg>